<mxfile host="Electron" agent="Mozilla/5.0 (X11; Linux x86_64) AppleWebKit/537.36 (KHTML, like Gecko) draw.io/26.1.1 Chrome/134.0.6998.205 Electron/35.6.0 Safari/537.36" version="26.1.1">
  <diagram name="Page-1" id="cpgdx4gNYDdvpS-ubVGO">
    <mxGraphModel dx="1206" dy="897" grid="1" gridSize="10" guides="1" tooltips="1" connect="1" arrows="1" fold="1" page="1" pageScale="1" pageWidth="850" pageHeight="1100" math="0" shadow="0">
      <root>
        <mxCell id="0" />
        <mxCell id="1" parent="0" />
        <mxCell id="BA7c2nkR62h139S30TR3-1" value="" style="endArrow=classic;html=1;rounded=0;" parent="1" edge="1">
          <mxGeometry width="50" height="50" relative="1" as="geometry">
            <mxPoint x="400" y="650" as="sourcePoint" />
            <mxPoint x="820" y="650" as="targetPoint" />
          </mxGeometry>
        </mxCell>
        <mxCell id="BA7c2nkR62h139S30TR3-2" value="" style="rounded=0;whiteSpace=wrap;html=1;fillColor=#f8cecc;strokeColor=#b85450;" parent="1" vertex="1">
          <mxGeometry x="400" y="610" width="350" height="20" as="geometry" />
        </mxCell>
        <mxCell id="BA7c2nkR62h139S30TR3-3" value="" style="rounded=0;whiteSpace=wrap;html=1;fillColor=#dae8fc;strokeColor=#6c8ebf;" parent="1" vertex="1">
          <mxGeometry x="752" y="610" width="40" height="20" as="geometry" />
        </mxCell>
        <mxCell id="BA7c2nkR62h139S30TR3-4" value="" style="endArrow=none;html=1;rounded=0;strokeWidth=1;dashed=1;" parent="1" edge="1">
          <mxGeometry width="50" height="50" relative="1" as="geometry">
            <mxPoint x="462" y="657" as="sourcePoint" />
            <mxPoint x="462" y="583" as="targetPoint" />
          </mxGeometry>
        </mxCell>
        <mxCell id="BA7c2nkR62h139S30TR3-5" value="" style="rounded=0;whiteSpace=wrap;html=1;fillColor=#d5e8d4;strokeColor=#82b366;" parent="1" vertex="1">
          <mxGeometry x="794" y="610" width="6" height="20" as="geometry" />
        </mxCell>
        <mxCell id="BA7c2nkR62h139S30TR3-8" value="" style="rounded=0;whiteSpace=wrap;html=1;fillColor=#f8cecc;strokeColor=#b85450;" parent="1" vertex="1">
          <mxGeometry x="400" y="583" width="5" height="20" as="geometry" />
        </mxCell>
        <mxCell id="BA7c2nkR62h139S30TR3-9" value="" style="rounded=0;whiteSpace=wrap;html=1;fillColor=#dae8fc;strokeColor=#6c8ebf;" parent="1" vertex="1">
          <mxGeometry x="407" y="583" width="47" height="20" as="geometry" />
        </mxCell>
        <mxCell id="BA7c2nkR62h139S30TR3-11" value="" style="rounded=0;whiteSpace=wrap;html=1;fillColor=#d5e8d4;strokeColor=#82b366;" parent="1" vertex="1">
          <mxGeometry x="456" y="583" width="6" height="20" as="geometry" />
        </mxCell>
        <mxCell id="BA7c2nkR62h139S30TR3-12" value="t (s)" style="text;html=1;align=center;verticalAlign=middle;whiteSpace=wrap;rounded=0;" parent="1" vertex="1">
          <mxGeometry x="820" y="640" width="40" height="20" as="geometry" />
        </mxCell>
        <mxCell id="BA7c2nkR62h139S30TR3-13" value="" style="rounded=0;whiteSpace=wrap;html=1;fillColor=#f8cecc;strokeColor=#b85450;" parent="1" vertex="1">
          <mxGeometry x="710" y="530" width="30" height="10" as="geometry" />
        </mxCell>
        <mxCell id="BA7c2nkR62h139S30TR3-14" value="" style="rounded=0;whiteSpace=wrap;html=1;fillColor=#dae8fc;strokeColor=#6c8ebf;" parent="1" vertex="1">
          <mxGeometry x="710" y="545" width="30" height="10" as="geometry" />
        </mxCell>
        <mxCell id="BA7c2nkR62h139S30TR3-15" value="" style="rounded=0;whiteSpace=wrap;html=1;fillColor=#d5e8d4;strokeColor=#82b366;" parent="1" vertex="1">
          <mxGeometry x="710" y="560" width="30" height="10" as="geometry" />
        </mxCell>
        <mxCell id="BA7c2nkR62h139S30TR3-19" value="" style="endArrow=none;html=1;rounded=0;" parent="1" edge="1">
          <mxGeometry width="50" height="50" relative="1" as="geometry">
            <mxPoint x="400" y="656" as="sourcePoint" />
            <mxPoint x="400" y="645" as="targetPoint" />
          </mxGeometry>
        </mxCell>
        <mxCell id="BA7c2nkR62h139S30TR3-20" value="21.69" style="text;html=1;align=center;verticalAlign=middle;whiteSpace=wrap;rounded=0;" parent="1" vertex="1">
          <mxGeometry x="442" y="657" width="41" height="20" as="geometry" />
        </mxCell>
        <mxCell id="BA7c2nkR62h139S30TR3-21" value="124" style="text;html=1;align=center;verticalAlign=middle;whiteSpace=wrap;rounded=0;" parent="1" vertex="1">
          <mxGeometry x="779" y="657" width="41" height="20" as="geometry" />
        </mxCell>
        <mxCell id="BA7c2nkR62h139S30TR3-22" value="" style="endArrow=none;html=1;rounded=0;strokeWidth=1;dashed=1;" parent="1" edge="1">
          <mxGeometry width="50" height="50" relative="1" as="geometry">
            <mxPoint x="800" y="657" as="sourcePoint" />
            <mxPoint x="800" y="610" as="targetPoint" />
          </mxGeometry>
        </mxCell>
        <mxCell id="BA7c2nkR62h139S30TR3-23" value="RIR" style="text;html=1;align=left;verticalAlign=middle;whiteSpace=wrap;rounded=0;" parent="1" vertex="1">
          <mxGeometry x="743" y="525" width="40" height="20" as="geometry" />
        </mxCell>
        <mxCell id="BA7c2nkR62h139S30TR3-24" value="conv FFT" style="text;html=1;align=left;verticalAlign=middle;whiteSpace=wrap;rounded=0;" parent="1" vertex="1">
          <mxGeometry x="743" y="540" width="60" height="20" as="geometry" />
        </mxCell>
        <mxCell id="BA7c2nkR62h139S30TR3-25" value="STFT" style="text;html=1;align=left;verticalAlign=middle;whiteSpace=wrap;rounded=0;" parent="1" vertex="1">
          <mxGeometry x="743" y="555" width="60" height="20" as="geometry" />
        </mxCell>
        <mxCell id="BA7c2nkR62h139S30TR3-26" value="Pyroomacoustics" style="text;html=1;align=left;verticalAlign=middle;whiteSpace=wrap;rounded=0;" parent="1" vertex="1">
          <mxGeometry x="290" y="610" width="100" height="20" as="geometry" />
        </mxCell>
        <mxCell id="BA7c2nkR62h139S30TR3-27" value="gpuRIR" style="text;html=1;align=left;verticalAlign=middle;whiteSpace=wrap;rounded=0;" parent="1" vertex="1">
          <mxGeometry x="290" y="583" width="100" height="20" as="geometry" />
        </mxCell>
      </root>
    </mxGraphModel>
  </diagram>
</mxfile>
